<svg xmlns="http://www.w3.org/2000/svg" viewBox="0 0 1024 1024">
  <path fill="#12B7F5" d="M824.8 613.2c-16-51.4-34.4-94.6-62.7-165.3C766.5 262.2 689.3 112 512 112 334.7 112 257.5 262.2 261.9 447.9c-28.3 70.7-46.7 113.9-62.7 165.3-34 109.5-23 154.8-14.6 155.8 18 2.2 70.1-82.4 70.1-82.4 0 49 25.2 112.9 79.8 159-26.4 8.1-85.7 29.9-71.6 53.8 11.4 19.3 196.2 12.3 249.1 6.3 53 6 237.7 13 249.1-6.3 14.1-23.8-45.3-45.7-71.6-53.8 54.6-46.2 79.8-110.1 79.8-159 0 0 52.1 84.6 70.1 82.4 8.4-1.1 19.4-46.3-14.6-155.8zM391.6 481.4c-6.8 0-12.2-8.2-12.2-18.2s5.5-18.2 12.2-18.2 12.2 8.2 12.2 18.2-5.5 18.2-12.2 18.2zm240.8 0c-6.8 0-12.2-8.2-12.2-18.2s5.5-18.2 12.2-18.2 12.2 8.2 12.2 18.2-5.5 18.2-12.2 18.2z"/>
</svg>