<svg xmlns="http://www.w3.org/2000/svg" viewBox="0 0 1024 1024">
  <path fill="#07C160" d="M690.1 377.4c5.9 0 11.8.2 17.6.5-24.4-128.7-158.3-227.1-313.4-227.1C209 150.8 58.4 284.2 58.4 447.5c0 95.1 52.5 176.9 134.3 232.1L163.2 769l106.7-54.1c41 11.6 82 17.4 122.7 17.4 5.8 0 11.5-.2 17.2-.5-7.2-24.6-11-50.6-11-77.5.1-152.6 126-276.9 291.3-276.9zm-218.2-58.8c22.2 0 40.2 17.5 40.2 39.1s-18 39.1-40.2 39.1-40.2-17.5-40.2-39.1 18-39.1 40.2-39.1zm-181.5 78.2c-22.2 0-40.2-17.5-40.2-39.1s18-39.1 40.2-39.1 40.2 17.5 40.2 39.1-18 39.1-40.2 39.1z"/>
  <path fill="#07C160" d="M926.8 564.1c0-133.7-126.2-242.1-282-242.1S362.8 430.4 362.8 564.1s126.2 242.1 282 242.1c33.2 0 65.2-5.3 95.3-15.3l86.5 43.8-26.2-78.5c68.5-47.5 126.4-117.6 126.4-192.1zM542.3 513.3c-17.6 0-31.9-13.9-31.9-31s14.3-31 31.9-31 31.9 13.9 31.9 31-14.3 31-31.9 31zm201.3 0c-17.6 0-31.9-13.9-31.9-31s14.3-31 31.9-31 31.9 13.9 31.9 31-14.3 31-31.9 31z"/>
</svg>